<svg class="logo" width="150" height="24" viewBox="0 0 150 24" xmlns="http://www.w3.org/2000/svg"><title>1426AC44-BBA2-448F-8374-CC2EDE980678</title><path d="M142.561 6.203c2.362-.03 4.643.8 6.365 2.314l-.937 2.205c-1.408-1.358-3.337-2.132-5.358-2.151-3.791 0-6.47 2.838-6.47 6.529 0 3.69 2.815 6.552 6.54 6.552 2.851 0 4.66-1.564 5.391-2.248l.837 2.183c-1.69 1.556-3.966 2.423-6.334 2.413-5.392 0-9.29-3.878-9.29-8.9s4.001-8.897 9.256-8.897zm-39.407-.011c3.376 0 5.116 1.987 5.603 3.259l-2 1.084c-.488-.911-1.427-2.183-3.758-2.183-1.67 0-2.991.88-2.991 2.348 0 3.812 9.116 2.379 9.116 8.278 0 2.998-2.646 5.019-6.161 5.019-3.791 0-5.495-2.021-6.298-3.62l1.916-1.18c.763 1.337 2.051 2.608 4.521 2.608 1.819 0 3.334-.979 3.334-2.705 0-1.816-1.96-2.501-4.06-3.288l-.486-.184c-2.273-.872-4.546-1.972-4.546-4.84s2.54-4.596 5.81-4.596zm14.517 0c3.376 0 5.115 1.987 5.6 3.259l-1.99 1.084c-.486-.911-1.425-2.183-3.756-2.183-1.67 0-2.994.88-2.994 2.348 0 3.812 9.116 2.379 9.116 8.278 0 2.998-2.643 5.019-6.158 5.019-3.792 0-5.498-2.021-6.298-3.62l1.906-1.18c.764 1.337 2.052 2.608 4.522 2.608 1.818 0 3.334-.979 3.334-2.705 0-3.912-9.092-2.575-9.092-8.312 0-2.868 2.54-4.596 5.81-4.596zm-79.776 0c5.325 0 8.595 3.585 8.595 8.67v.118c-.002.158-.008.42-.033.665H31.946c.036 3.779 2.749 6.061 6.507 6.061 3.064 0 4.767-1.499 5.637-2.64l1.818 1.238c-1.01 1.598-3.373 3.69-7.48 3.69-5.497 0-9.288-3.62-9.288-8.832-.01-5.416 3.949-8.97 8.755-8.97zM61.243.315c2.732-.03 5.395.809 7.552 2.38l-.909 2.344c-1.861-1.418-4.177-2.21-6.576-2.248-5.389.011-9.432 4.054-9.432 9.365 0 5.312 3.861 9.368 9.498 9.368 2.546-.017 5.001-.883 6.925-2.444l.876 2.3c-2.213 1.707-4.997 2.63-7.864 2.608-7.131 0-12.35-5.084-12.35-11.832 0-6.748 5.391-11.84 12.28-11.84zm25.424 5.877c4.94 0 6.889 2.574 6.889 6.194v11.177h-2.364l-.303-1.434c-.94 1.01-2.47 1.86-4.904 1.86-3.967 0-6.888-2.348-6.888-5.639 0-3.227 2.885-5.575 6.955-5.575 2.297 0 4.037.815 4.767 1.533V12.22c0-2.379-1.703-3.747-4.382-3.747a10.882 10.882 0 0 0-5.325 1.468L80 8.05a13.359 13.359 0 0 1 6.667-1.86zM75.54 0v23.563h-2.75V0h2.75zm54.248 6.617v16.946h-2.749V6.617h2.75zM86.391 14.83c-2.706 0-4.51 1.5-4.51 3.486 0 1.988 1.77 3.52 4.547 3.52 2.642 0 4.488-1.467 4.488-3.52 0-2.117-1.818-3.486-4.525-3.486zm-59.564 4.877c.318.705.713 1.377 1.18 2.005H17.422a3.652 3.652 0 0 1-2.097-.741l-.764-.633s-.782-.63.43-.63zm-1.012-6.05c-.033.31-.049.617-.045.918 0 .372.018.732.045 1.09H10.213a3.563 3.563 0 0 1-2.088-.755l-.585-.497s-.909-.755.303-.755zm12.08-5.248c-2.994 0-5.6 2.118-5.81 5.311h11.586c-.171-3.52-2.781-5.31-5.776-5.31zM27.81 7.625a11.4 11.4 0 0 0-1.085 2.007H3.004a3.58 3.58 0 0 1-2.09-.752l-.588-.5s-.909-.755.303-.755zM128.4.488c.77-.007 1.47.424 1.767 1.09a1.696 1.696 0 0 1-.407 1.944 1.992 1.992 0 0 1-2.076.382c-.71-.28-1.17-.934-1.163-1.656.002-.971.842-1.758 1.879-1.76z" fill="#FFF" fill-rule="evenodd"/></svg>